<?xml version="1.0" encoding="UTF-8" standalone="no"?>
<!-- Generator: Adobe Illustrator 19.0.0, SVG Export Plug-In . SVG Version: 6.00 Build 0)  -->

<svg
   xmlns:dc="http://purl.org/dc/elements/1.1/"
   xmlns:cc="http://creativecommons.org/ns#"
   xmlns:rdf="http://www.w3.org/1999/02/22-rdf-syntax-ns#"
   xmlns:svg="http://www.w3.org/2000/svg"
   xmlns="http://www.w3.org/2000/svg"
   xmlns:sodipodi="http://sodipodi.sourceforge.net/DTD/sodipodi-0.dtd"
   xmlns:inkscape="http://www.inkscape.org/namespaces/inkscape"
   version="1.1"
   id="Capa_1"
   x="0px"
   y="0px"
   viewBox="0 0 477.867 477.867"
   style="enable-background:new 0 0 477.867 477.867;"
   xml:space="preserve"
   sodipodi:docname="add1.svg"
   inkscape:version="0.92.4 (5da689c313, 2019-01-14)"><metadata
   id="metadata899"><rdf:RDF><cc:Work
       rdf:about=""><dc:format>image/svg+xml</dc:format><dc:type
         rdf:resource="http://purl.org/dc/dcmitype/StillImage" /><dc:title></dc:title></cc:Work></rdf:RDF></metadata><defs
   id="defs897" /><sodipodi:namedview
   pagecolor="#ffffff"
   bordercolor="#666666"
   borderopacity="1"
   objecttolerance="10"
   gridtolerance="10"
   guidetolerance="10"
   inkscape:pageopacity="0"
   inkscape:pageshadow="2"
   inkscape:window-width="1920"
   inkscape:window-height="1017"
   id="namedview895"
   showgrid="false"
   inkscape:zoom="1.7745523"
   inkscape:cx="238.9335"
   inkscape:cy="238.9335"
   inkscape:window-x="-8"
   inkscape:window-y="-8"
   inkscape:window-maximized="1"
   inkscape:current-layer="Capa_1" />
<g
   id="g862">
	<g
   id="g860">
		<path
   d="M392.533,0h-307.2C38.228,0.056,0.056,38.228,0,85.333v307.2c0.056,47.105,38.228,85.277,85.333,85.333h307.2    c47.105-0.056,85.277-38.228,85.333-85.333v-307.2C477.81,38.228,439.638,0.056,392.533,0z M324.267,256H256v68.267    c0,9.426-7.641,17.067-17.067,17.067s-17.067-7.641-17.067-17.067V256H153.6c-9.426,0-17.067-7.641-17.067-17.067    s7.641-17.067,17.067-17.067h68.267V153.6c0-9.426,7.641-17.067,17.067-17.067S256,144.174,256,153.6v68.267h68.267    c9.426,0,17.067,7.641,17.067,17.067S333.692,256,324.267,256z"
   id="path858" />
	</g>
</g>
<g
   id="g864">
</g>
<g
   id="g866">
</g>
<g
   id="g868">
</g>
<g
   id="g870">
</g>
<g
   id="g872">
</g>
<g
   id="g874">
</g>
<g
   id="g876">
</g>
<g
   id="g878">
</g>
<g
   id="g880">
</g>
<g
   id="g882">
</g>
<g
   id="g884">
</g>
<g
   id="g886">
</g>
<g
   id="g888">
</g>
<g
   id="g890">
</g>
<g
   id="g892">
</g>
<path
   style="fill:#c6e9af;fill-opacity:1;stroke:none;stroke-width:7.24148464;stroke-linecap:square;stroke-linejoin:round;stroke-miterlimit:5.5999999;stroke-dasharray:none;stroke-dashoffset:0;stroke-opacity:0;paint-order:stroke fill markers"
   d="m 77.484331,477.25208 c -9.410587,-0.87462 -21.73831,-4.47933 -30.440805,-8.90111 -7.558811,-3.84068 -14.04991,-8.45513 -20.207493,-14.3653 C 11.000523,438.78644 2.2877775,420.22643 0.55999871,398.0121 -0.1397393,389.01546 -0.14856885,89.317434 0.55062265,79.766045 3.3884515,40.999555 30.377176,10.212722 68.823155,1.8855553 L 74.666719,0.61987465 H 238.9335 403.20028 l 5.80165,1.25713075 c 22.81762,4.9442423 41.57246,17.5335726 54.28313,36.4379666 8.28028,12.315155 12.7872,25.657597 14.01137,41.479801 0.70903,9.163996 0.72841,308.177447 0.0206,317.846057 -0.62482,8.53501 -1.72457,14.17473 -4.24274,21.7575 -4.44671,13.39 -11.69462,24.68819 -22.4052,34.92569 -11.40878,10.90485 -25.23393,18.08898 -41.86559,21.75513 l -5.60323,1.23512 -161.73093,0.0736 c -88.95201,0.0405 -162.745272,-0.0206 -163.985022,-0.13584 z M 246.8016,339.39803 c 2.63005,-1.29402 4.22047,-2.55843 5.72518,-4.55164 3.8854,-5.14677 3.87592,-5.0394 3.87592,-43.90856 v -34.76054 h 35.48077 c 34.89158,0 35.53438,-0.0201 38.70886,-1.20778 6.95351,-2.60164 11.24848,-9.4267 10.76515,-17.1067 -0.41273,-6.55811 -3.62503,-11.3737 -9.56799,-14.34343 l -3.43594,-1.71696 h -35.95577 -35.95577 l -0.16054,-36.20631 -0.16053,-36.20632 -1.56647,-3.18984 c -3.09255,-6.29743 -8.58832,-9.71555 -15.62097,-9.71555 -7.03265,0 -12.52842,3.41812 -15.62096,9.71555 l -1.56647,3.18984 -0.16054,36.20632 -0.16053,36.20631 -35.9049,4.5e-4 -35.9049,4.4e-4 -3.38626,1.60199 c -5.88574,2.78446 -9.30486,7.87036 -9.71942,14.45751 -0.48332,7.68 3.81165,14.50506 10.76516,17.1067 3.17441,1.18769 3.81772,1.20778 38.6892,1.20778 H 221.425 l 0.16053,36.20631 0.16054,36.20632 1.2719,2.55315 c 1.90862,3.83131 4.20056,6.32391 7.43199,8.08267 5.40917,2.94404 10.60684,2.99881 16.35164,0.17229 z"
   id="path901"
   inkscape:connector-curvature="0" /><path
   style="fill:#c6e9af;fill-opacity:1;stroke:none;stroke-width:7.24148464;stroke-linecap:square;stroke-linejoin:round;stroke-miterlimit:5.5999999;stroke-dasharray:none;stroke-dashoffset:0;stroke-opacity:0;paint-order:stroke fill markers"
   d="M 71.849107,476.17271 C 53.11472,472.83065 36.988166,464.18955 24.007569,450.53776 14.869356,440.92703 8.5905796,430.36495 4.7779847,418.18998 0.54968022,404.68751 0.92053572,420.69137 0.70375226,242.37099 0.56724921,130.08714 0.69108112,80.740849 1.1187346,77.003004 2.3712253,66.055781 4.541091,58.335682 8.9936582,48.985042 20.306663,25.2271 40.556558,9.0865194 67.218255,2.5759723 L 74.074919,0.90163586 H 239.036 403.99708 l 7.61199,1.95092504 c 11.13866,2.8547972 19.48302,6.4972356 28.22017,12.3185211 16.31186,10.868075 29.50212,29.21654 34.31186,47.729898 3.04546,11.722405 2.88062,1.629628 2.88062,176.37064 0,181.76642 0.35184,165.8417 -3.95453,178.98787 -4.62378,14.11518 -11.53243,25.09505 -22.32546,35.48172 -11.05967,10.64327 -23.75288,17.44153 -40.49741,21.68969 l -6.48051,1.64414 -163.70326,-0.0491 C 100.89873,476.98426 75.681449,476.85634 71.849107,476.17268 Z M 246.398,339.75276 c 3.77659,-1.69483 7.89577,-5.86606 8.98157,-9.09508 0.51444,-1.52989 0.74401,-11.48588 0.88253,-38.27408 l 0.18723,-36.20631 h 35.37632 c 41.16199,0 39.42359,0.19417 44.59328,-4.98092 3.73308,-3.73697 5.07565,-6.9867 5.07565,-12.28576 0,-6.86216 -3.66482,-12.67602 -10.04091,-15.92886 -2.27447,-1.16034 -2.89148,-1.17933 -38.32913,-1.17933 H 257.1071 l -0.3522,-1.76101 c -0.19371,-0.96855 -0.35458,-17.38819 -0.35749,-36.48807 l -0.005,-34.72707 -1.68684,-2.94127 c -3.89185,-6.78565 -8.27819,-9.4082 -15.772,-9.42978 -3.92102,-0.0113 -5.28658,0.22954 -7.5277,1.32762 -3.39176,1.66186 -6.04721,4.2716 -8.24407,8.10216 l -1.68685,2.94127 -0.0115,34.37487 c -0.006,18.90617 -0.16867,35.32581 -0.36079,36.48807 l -0.34928,2.11321 h -36.01416 c -35.47651,0 -36.04957,0.0177 -38.38667,1.1853 -6.20238,3.09869 -9.98007,9.12586 -9.98007,15.92289 0,5.29906 1.34257,8.54879 5.07565,12.28576 5.16609,5.17148 3.47276,4.98092 44.26111,4.98092 h 35.04414 l 0.34929,2.11321 c 0.19211,1.16226 0.35208,17.55103 0.35549,36.41948 l 0.006,34.30627 1.69852,2.9687 c 5.06633,8.85501 14.09023,11.87182 23.23517,7.76781 z"
   id="path903"
   inkscape:connector-curvature="0" /><path
   style="fill:#68376d;fill-opacity:1;stroke:none;stroke-width:7.24148464;stroke-linecap:square;stroke-linejoin:round;stroke-miterlimit:5.5999999;stroke-dasharray:none;stroke-dashoffset:0;stroke-opacity:0;paint-order:stroke fill markers"
   d="M 74.948481,476.69453 C 53.984895,473.27126 37.680442,464.91763 24.113367,450.64903 14.953529,441.01556 9.1765494,431.45471 5.0495067,419.09854 0.4926531,405.45552 0.88318889,421.30317 0.68744043,242.08923 0.56352517,128.64088 0.69255118,80.697108 1.1325473,76.6954 4.6624341,44.591554 24.83238,18.224451 54.955521,6.3354723 57.751602,5.231916 63.19732,3.5578482 67.057116,2.6153212 L 74.074919,0.90163586 H 239.09321 404.1115 l 6.85287,1.73008604 c 11.21941,2.8324654 18.79781,6.048628 27.45607,11.6519441 7.07074,4.575939 13.58663,10.335694 18.90019,16.706937 11.20668,13.437403 17.68188,28.789624 19.39602,45.986558 0.47411,4.756513 0.5933,48.980679 0.44801,166.239109 -0.2196,177.23664 0.11732,162.0546 -3.87356,174.5472 -4.35515,13.63284 -10.73467,23.9735 -21.31421,34.5485 -12.30518,12.29989 -24.81043,19.14974 -42.7141,23.39696 l -5.77147,1.36914 -163.56702,-0.0767 c -89.96186,-0.0422 -164.200976,-0.18026 -164.975819,-0.3068 z M 242.74516,341.02965 c 5.84814,-1.55681 9.81721,-4.78019 12.19503,-9.90388 1.14822,-2.47417 1.18145,-3.41651 1.36605,-38.74217 l 0.18921,-36.20631 33.34233,-0.0299 c 18.33827,-0.0165 34.86383,-0.16273 36.72346,-0.32507 4.25606,-0.37153 7.54139,-1.9108 10.08317,-4.72424 3.01394,-3.33607 4.42024,-6.54502 4.72425,-10.78 0.52811,-7.35659 -3.03129,-13.68973 -9.54674,-16.98625 l -3.02277,-1.52938 h -35.85617 c -32.1763,0 -35.89129,-0.0915 -36.19823,-0.89137 -0.18813,-0.49026 -0.34205,-16.87902 -0.34205,-36.41948 v -35.52811 l -1.66164,-2.90424 c -1.99906,-3.49399 -5.09833,-6.69768 -7.65142,-7.9092 -4.47755,-2.12473 -10.93948,-2.33812 -15.32428,-0.50603 -2.75623,1.15163 -6.64474,4.92892 -8.60986,8.36358 l -1.69119,2.95589 -0.008,35.15156 c -0.004,19.33335 -0.1606,35.72212 -0.34749,36.41948 l -0.33978,1.26792 -35.85883,0.0124 c -33.86811,0.0117 -35.98826,0.0711 -38.19013,1.07098 -3.30019,1.49857 -6.8027,4.8471 -8.5551,8.179 -1.30237,2.47624 -1.50087,3.52371 -1.50187,7.92508 -10e-4,4.20323 0.21946,5.48616 1.28714,7.49206 1.88619,3.54365 4.89388,6.63363 7.8967,8.11276 l 2.64088,1.30083 36.05433,0.17675 c 19.8299,0.0972 36.18613,0.30842 36.3472,0.46936 0.16107,0.16094 0.36171,16.49677 0.44588,36.30185 l 0.15302,36.00923 1.94531,3.31918 c 2.93503,5.00786 6.57108,7.81055 11.83671,9.1238 2.60748,0.65031 4.25218,0.59176 7.47455,-0.26605 z"
   id="path905"
   inkscape:connector-curvature="0" /></svg>